<svg width="52" height="40" viewBox="0 0 52 40" fill="none" xmlns="http://www.w3.org/2000/svg">
<path d="M34.725 0.0504668C37.0181 -0.0555993 39.9203 0.0276656 42.2119 0.0983321C42.2006 0.192466 42.1854 0.286067 42.1664 0.378941C41.8408 1.911 41.0624 3.82841 40.3836 5.2363C38.1504 9.86787 34.6997 13.8272 30.6665 16.9832C29.8353 17.6336 28.93 18.2068 28.0518 18.7927C28.3241 18.9567 28.5931 19.1265 28.8585 19.3018C35.7758 23.834 41.3678 31.8142 43.062 39.9229C40.7451 39.9342 38.5905 40.1059 36.2652 39.8971C27.5497 39.1155 19.9687 34.8815 14.5197 28.1025C14.268 27.7896 13.6536 27.0777 13.5394 26.7131C13.1311 25.4111 13.3704 23.1048 13.4938 21.7475C14.5157 23.8712 17.0384 26.9219 18.6661 28.548C24.0144 33.8911 31.5949 37.2335 39.1879 37.2275C36.577 30.3014 32.3796 24.9743 26.1532 20.8472C24.7773 19.9351 23.5241 19.3975 22.047 18.7042L22.2217 18.643C27.3805 16.8253 32.6325 12.0664 35.6876 7.55742C36.8604 5.82636 37.5008 4.60023 38.384 2.7572C27.3576 2.35349 17.2031 7.58029 12.7831 17.9896C11.9453 20.0103 11.3058 23.2195 11.3532 25.4098C11.4474 29.8022 13.0446 34.0303 15.8784 37.388C16.7338 38.4009 17.4552 39.0307 18.39 39.9289C16.6899 40.0383 14.6059 39.9481 12.8688 39.97C8.60677 40.0237 4.26456 39.8958 0.00914543 39.9892C0.0918308 39.0545 0.0310928 37.2726 0.0236664 36.2789C0.0025806 34.0893 -0.00444862 31.8997 0.00271258 29.7108L0.0496588 10.1259L0.0483334 3.12147C0.0473387 2.15853 -0.00458077 1.0573 0.0276447 0.120007C1.51412 0.0496057 3.46588 0.10728 4.97982 0.108407L14.3367 0.114241C15.6214 0.114971 17.2521 0.166875 18.5008 0.102572C15.7652 2.52698 13.5477 5.20143 12.3424 8.68371C11.6726 10.6189 11.9199 11.2514 10.5853 12.9427C9.90507 13.8048 8.90064 16.0538 8.5138 17.0814C8.502 17.0139 8.49106 16.9462 8.48085 16.8784C7.74119 11.9253 9.28125 6.89013 12.247 2.91001C9.1477 2.88024 6.04816 2.87587 2.94875 2.89695C3.02494 5.48827 2.96089 8.42438 2.96148 11.0386L2.96221 28.1516C2.96228 31.1135 2.90784 34.2663 2.97448 37.2176C6.01872 37.2733 9.17635 37.2289 12.2327 37.2335C11.6033 36.4234 11.0004 35.3979 10.5224 34.493C6.2996 26.5036 8.41799 16.9454 14.1324 10.265C18.3967 5.24465 24.2332 1.81282 30.6943 0.52664C32.0921 0.255243 33.3133 0.163096 34.725 0.0504668Z" fill="white"/>
<path d="M41.5888 8.84277C42.5443 10.0073 44.2595 11.9069 44.4281 13.4116C44.6684 15.5559 42.7619 16.4725 41.8258 17.7111L41.7758 17.7785C41.9463 16.3581 41.8541 15.9062 41.5835 14.5115C41.4144 15.2388 41.3041 15.8872 41.2512 16.6285C41.1466 18.0928 41.5806 17.5099 42.2118 18.2602L42.2755 18.2789C42.1935 18.4847 42.2121 18.5245 42.2693 18.7422L42.2506 18.7757C42.0497 18.9688 41.8382 19.2055 41.5501 19.1612C40.5466 19.0071 40.732 18.311 41.3271 17.8323C40.3543 16.5753 38.8814 15.8934 38.7177 13.9818C38.5609 12.1508 40.4378 10.1766 41.5888 8.84277Z" fill="white"/>
<path d="M41.8372 19.2344C42.7137 20.5137 44.3081 21.2457 44.478 23.2307C44.6292 24.9973 42.7356 27.0026 41.6142 28.3086C41.029 27.769 40.3624 26.8349 39.8682 26.1747C39.2931 25.4083 38.7415 24.465 38.6864 23.4972C38.5759 21.5543 40.0928 20.5638 41.2363 19.2836C41.2843 20.743 41.3851 21.4796 41.5829 22.947C41.7713 21.5978 41.9687 20.6055 41.8372 19.2344Z" fill="white"/>
<path d="M42.2119 18.2595L42.2848 18.2173C43.6394 17.421 44.551 15.1356 47.1056 15.7516C48.3111 16.0421 50.4455 17.6742 51.3771 18.5413C50.2055 19.6771 48.0372 21.4893 46.3391 21.4532C44.6601 21.4175 43.5373 19.8265 42.2507 18.775L42.2694 18.7416C43.5163 18.9799 44.3381 18.7651 45.5679 18.5278C44.198 18.295 43.6608 18.1754 42.2756 18.2782L42.2119 18.2595Z" fill="white"/>
<path d="M36.2043 15.6823C36.3195 15.6748 36.4348 15.6691 36.5501 15.6653C38.2824 15.6112 38.9326 16.541 40.0479 17.6492C40.2814 17.8813 40.5625 18.0498 40.8115 18.2838C39.5045 18.1694 38.7235 18.3226 37.4494 18.5204C38.4688 18.8445 39.7814 18.8706 40.8361 18.7645C40.1002 19.3446 39.4907 19.9339 38.8246 20.5926C36.3136 22.7704 33.6395 20.2487 31.7383 18.532C33.2008 17.2665 34.3281 16.2558 36.2043 15.6823Z" fill="white"/>
<path d="M14.4473 19.8955C14.5187 19.9379 15.881 21.9491 16.0663 22.1977C17.0138 23.4748 18.0332 24.6972 19.1194 25.8587C21.8726 28.8431 24.3962 30.8809 27.8379 32.9744C27.2762 32.8802 25.1799 31.6108 24.6217 31.2667C20.2288 28.558 16.5926 24.6197 14.4473 19.8955Z" fill="white"/>
</svg>
